<svg width="208" height="34" viewBox="0 0 208 34" fill="none" xmlns="http://www.w3.org/2000/svg">
<g clip-path="url(#clip0_1_209)">
<path d="M61.3714 25.8314C58.6033 25.8314 56.3594 23.6018 56.3594 20.8514V0.374368C56.3594 0.16761 56.5281 0 56.7361 0H60.8342C61.1309 0 61.3714 0.238987 61.3714 0.533792V25.8314Z" fill="white"/>
<path fill-rule="evenodd" clip-rule="evenodd" d="M83.1831 25.298C83.1831 25.5928 82.9426 25.8318 82.6459 25.8318H78.7444C78.4477 25.8318 78.2072 25.5928 78.2072 25.298V23.933C77.7384 24.6495 76.9812 25.1869 75.9716 25.581C74.998 25.9751 74.0966 26.1542 73.3033 26.1542C71.0317 26.1542 69.0485 25.366 67.3178 23.7538C65.587 22.1416 64.7216 20.0278 64.7216 17.4482C64.7216 14.8687 65.587 12.7907 67.3178 11.1785C69.0485 9.56622 71.0317 8.74219 73.3033 8.74219C74.8899 8.74219 77.0533 9.35125 78.2072 10.9635V9.63426C78.2072 9.33945 78.4477 9.10047 78.7444 9.10047H82.6459C82.9426 9.10047 83.1831 9.33945 83.1831 9.63426V25.298ZM71.1759 20.3144C72.0413 21.0668 73.0149 21.4251 74.1327 21.4251C76.2961 21.4251 78.2072 19.8487 78.2072 17.4482C78.2072 15.0478 76.2961 13.4714 74.1327 13.4714C73.0149 13.4714 72.0413 13.8655 71.1759 14.6179C70.3466 15.3703 69.9139 16.3018 69.9139 17.4482C69.9139 18.5947 70.3466 19.562 71.1759 20.3144Z" fill="white"/>
<path d="M94.1521 19.4901C95.342 19.8125 95.8107 20.2066 95.8107 20.9232C95.8107 21.7472 94.9093 22.2846 93.7555 22.3204C92.6482 22.3204 91.6899 21.6787 91.3754 20.887C91.2693 20.6197 91.0383 20.3858 90.7491 20.3858H87.1283C86.8273 20.3858 86.5825 20.6321 86.6131 20.9296C86.7684 22.4388 87.4492 23.6838 88.7074 24.6134C90.1136 25.6524 91.7723 26.1539 93.6112 26.1539C95.5583 26.1539 97.2531 25.6882 98.6954 24.7925C100.174 23.8968 100.895 22.6071 100.895 20.9232C100.895 19.92 100.751 18.9885 99.2723 17.5912C98.5511 16.9105 97.5776 16.3731 96.3156 16.0507L93.467 15.2983C92.5295 15.0475 92.0247 14.6534 91.9886 14.0444C91.9526 13.292 92.6377 12.7904 93.7555 12.7904C94.775 12.7904 95.3709 13.1177 95.5813 13.7535C95.6716 14.0263 95.8952 14.2593 96.1842 14.2593H99.8426C100.143 14.2593 100.388 14.0136 100.361 13.7161C100.214 12.0917 99.5383 10.8755 98.3348 10.0675C97.0006 9.17181 95.3781 8.70605 93.467 8.70605C91.7002 8.70605 90.1858 9.20764 88.8877 10.175C87.5896 11.1424 86.9406 12.2172 86.9045 13.4711C86.8685 14.5101 86.9406 15.0833 87.4814 16.2298C88.0584 17.3405 89.6088 18.3078 91.9526 18.9169L94.1521 19.4901Z" fill="white"/>
<path d="M112.178 20.9232C112.178 20.2066 111.709 19.8125 110.519 19.4901L108.32 18.9169C105.976 18.3078 104.426 17.3405 103.849 16.2298C103.308 15.0833 103.236 14.5101 103.272 13.4711C103.308 12.2172 103.957 11.1424 105.255 10.175C106.553 9.20764 108.067 8.70605 109.834 8.70605C111.745 8.70605 113.368 9.17181 114.702 10.0675C115.906 10.8755 116.581 12.0917 116.728 13.7161C116.755 14.0136 116.511 14.2593 116.21 14.2593H112.551C112.263 14.2593 112.039 14.0263 111.949 13.7535C111.738 13.1177 111.142 12.7904 110.123 12.7904C109.005 12.7904 108.32 13.292 108.356 14.0444C108.392 14.6534 108.897 15.0475 109.834 15.2983L112.683 16.0507C113.945 16.3731 114.918 16.9105 115.64 17.5912C117.118 18.9885 117.262 19.92 117.262 20.9232C117.262 22.6071 116.541 23.8968 115.063 24.7925C113.62 25.6882 111.926 26.1539 109.978 26.1539C108.14 26.1539 106.481 25.6524 105.075 24.6134C103.817 23.6838 103.136 22.4388 102.98 20.9296C102.95 20.6321 103.195 20.3858 103.496 20.3858H107.116C107.406 20.3858 107.637 20.6197 107.743 20.887C108.057 21.6787 109.015 22.3204 110.123 22.3204C111.277 22.2846 112.178 21.7472 112.178 20.9232Z" fill="white"/>
<path d="M128.597 8.74219C126.109 8.74219 123.946 9.56622 122.143 11.1785C120.34 12.7907 119.438 14.8687 119.438 17.4124C119.438 19.9561 120.34 22.0699 122.143 23.718C123.946 25.3661 126.109 26.1901 128.597 26.1901C131.431 26.1901 133.981 25.0297 135.596 23.0317C135.782 22.8029 135.722 22.4705 135.481 22.3009L132.3 20.0632C132.05 19.8876 131.707 19.9576 131.508 20.1881C130.801 21.0053 129.831 21.4251 128.597 21.4251C127.479 21.4251 126.506 21.0668 125.676 20.3144C124.847 19.562 124.414 18.5947 124.414 17.4124C124.414 16.2659 124.847 15.3344 125.676 14.6179C126.506 13.8655 127.479 13.5072 128.597 13.5072C129.83 13.5072 130.799 13.9262 131.505 14.7417C131.706 14.973 132.051 15.0423 132.301 14.8645L135.481 12.5996C135.722 12.428 135.779 12.0938 135.591 11.8661C133.945 9.87153 131.397 8.74219 128.597 8.74219Z" fill="white"/>
<path fill-rule="evenodd" clip-rule="evenodd" d="M156.345 25.2619C156.345 25.5567 156.104 25.7957 155.807 25.7957H151.906C151.609 25.7957 151.369 25.5567 151.369 25.2619V23.8968C150.9 24.6134 150.143 25.1508 149.133 25.5449C148.16 25.939 147.258 26.1181 146.465 26.1181C144.193 26.1181 142.21 25.3299 140.479 23.7177C138.749 22.1055 137.883 19.9917 137.883 17.4121C137.883 14.8326 138.749 12.7546 140.479 11.1424C142.21 9.53008 144.193 8.70605 146.465 8.70605C148.051 8.70605 150.215 9.31512 151.369 10.9274V9.59812C151.369 9.30331 151.609 9.06433 151.906 9.06433H155.807C156.104 9.06433 156.345 9.30331 156.345 9.59812V25.2619ZM144.337 20.2783C145.203 21.0307 146.176 21.3889 147.294 21.3889C149.458 21.3889 151.369 19.8125 151.369 17.4121C151.369 15.0117 149.458 13.4353 147.294 13.4353C146.176 13.4353 145.203 13.8294 144.337 14.5818C143.508 15.3341 143.075 16.2656 143.075 17.4121C143.075 18.5586 143.508 19.5259 144.337 20.2783Z" fill="white"/>
<path d="M178.442 13.5789C180.029 13.5789 181.219 14.797 181.219 16.9108V25.298C181.219 25.5928 181.459 25.8318 181.756 25.8318H185.657C185.954 25.8318 186.195 25.5928 186.195 25.298V16.3376C186.195 11.3576 183.779 8.74219 179.704 8.74219C177.577 8.74219 175.882 9.74535 174.656 11.7159C173.719 9.74535 171.916 8.77802 169.248 8.77802C167.373 8.77802 165.606 9.81701 164.848 11.5368V9.63426C164.848 9.33945 164.608 9.10047 164.311 9.10047H160.374C160.077 9.10047 159.836 9.33945 159.836 9.63426V25.298C159.836 25.5928 160.077 25.8318 160.374 25.8318H164.311C164.608 25.8318 164.848 25.5928 164.848 25.298V16.9825C164.848 14.5821 166.074 13.5789 167.769 13.5789C169.32 13.5789 170.51 14.797 170.546 16.8034V25.298C170.546 25.5928 170.786 25.8318 171.083 25.8318H175.02C175.317 25.8318 175.558 25.5928 175.558 25.298V16.9825C175.558 14.6895 176.711 13.5789 178.442 13.5789Z" fill="white"/>
<path fill-rule="evenodd" clip-rule="evenodd" d="M194.426 34.0001C191.713 34.0001 189.514 31.8149 189.514 29.1193V9.38402C189.514 9.20746 189.658 9.06433 189.836 9.06433H193.953C194.249 9.06433 194.49 9.30331 194.49 9.59812V11.1424C195.319 9.60173 197.266 8.70605 199.43 8.70605C201.665 8.70605 203.577 9.53008 205.163 11.1424C206.786 12.7546 207.579 14.8326 207.579 17.3763C207.579 19.9917 206.786 22.1055 205.163 23.7177C203.577 25.3299 201.665 26.1539 199.43 26.1539C197.266 26.1539 195.319 25.2224 194.49 23.7535V33.9367C194.49 33.9717 194.461 34.0001 194.426 34.0001ZM198.492 13.4353C196.329 13.4353 194.598 15.155 194.598 17.4838C194.598 19.92 196.329 21.4606 198.492 21.4606C200.656 21.4606 202.387 19.8125 202.387 17.4838C202.387 15.0833 200.656 13.4353 198.492 13.4353Z" fill="white"/>
<path d="M49.4973 18.3696C49.6817 18.1368 50.017 18.074 50.2619 18.2431L53.3989 20.4091C53.6379 20.5741 53.7022 20.8993 53.5313 21.1334C51.4208 24.0234 47.9588 25.8054 43.9712 25.8054C40.6401 25.8054 37.8529 24.6571 35.5755 22.3268C33.3321 19.9964 32.2104 17.1932 32.2104 13.8834C32.2104 10.5399 33.3321 7.73673 35.5755 5.40637C37.8529 3.07602 40.6401 1.92773 43.9712 1.92773C47.8513 1.92773 51.3008 3.66978 53.4126 6.42707C53.592 6.66125 53.529 6.99377 53.2852 7.16074L50.1257 9.32397C49.8807 9.4917 49.5464 9.42808 49.3638 9.19475C48.0034 7.45721 46.2059 6.58844 43.9712 6.58844C42.0337 6.58844 40.4361 7.29768 39.1445 8.71616C37.8529 10.1008 37.207 11.8233 37.207 13.8834C37.207 15.9098 37.8529 17.6323 39.1445 19.0508C40.4361 20.4355 42.0337 21.1447 43.9712 21.1447C46.1985 21.1447 48.1652 20.0515 49.4973 18.3696Z" fill="white"/>
<path d="M22.1912 5.99961L20.8998 8.2364C21.6599 8.67587 22.322 8.9274 23.2632 8.9274V11.5122C21.8505 11.5122 20.7464 11.1344 19.6057 10.4744L20.8971 8.2376C18.616 6.91811 15.9677 6.16293 13.1429 6.16293C10.3176 6.16293 7.66869 6.91844 5.38726 8.23846L4.09465 5.99961C6.75631 4.45957 9.84669 3.57812 13.1429 3.57812C16.4392 3.57812 19.5296 4.45957 22.1912 5.99961Z" fill="white"/>
<path d="M19.606 10.4776C17.7048 9.37765 15.4974 8.74805 13.1429 8.74805C10.7885 8.74805 8.58107 9.37765 6.67988 10.4776L7.97248 12.7165C9.49343 11.8365 11.2594 11.3328 13.1429 11.3328C15.0259 11.3328 16.7913 11.8361 18.3119 12.7156L17.0205 14.9525C18.9217 16.0525 20.9087 16.6821 23.2632 16.6821V14.0973C21.3802 14.0973 19.8352 13.5939 18.3146 12.7144L19.606 10.4776Z" fill="white"/>
<path d="M13.1429 13.918C14.5556 13.918 15.8801 14.2958 17.0208 14.9558L15.7293 17.1926C18.0104 18.5121 20.4384 19.2673 23.2632 19.2673V21.8521C19.9669 21.852 17.0969 20.9706 14.4353 19.4306L15.7267 17.1938C14.9665 16.7543 14.0841 16.5028 13.1429 16.5028C12.2012 16.5028 11.3182 16.7546 10.5577 17.1946L9.2651 14.9558C10.4058 14.2958 11.7303 13.918 13.1429 13.918Z" fill="white"/>
<path d="M8.52274 23.9988H8.52509C8.53096 24.0104 8.53686 24.022 8.54281 24.0336L8.79339 24.4676C9.71324 25.896 11.3176 26.8421 13.1429 26.8421H13.149L1.95422 7.45215C1.25999 7.99913 0.60679 8.59586 0 9.23694L8.52274 23.9988Z" fill="white"/>
</g>
<defs>
<clipPath id="clip0_1_209">
<rect width="208" height="34" fill="white"/>
</clipPath>
</defs>
</svg>
